#!OML:ASF I:\golf\golf\golf 2\Subject 1\2002-09-07\Subject1.ASF
:FULLY-SPECIFIED
:DEGREES
200
root 0.183653 17.7484 -5.56066 22.1471 16.6293 -1.60006
lowerback 14.8569 4.10475 -1.77757
upperback 9.2795 5.27887 5.362
thorax 0.871365 2.46494 5.90105
lowerneck -14.3339 -5.58448 -1.28983
upperneck 32.549 -6.16626 -3.67651
head 13.2216 -3.18963 -2.11888
rclavicle 7.15625e-014 -5.725e-014
rhumerus -0.812609 6.55886 -75.6597
rradius 34.6385
rwrist -11.8179
rhand -22.5422 13.7647
rfingers 7.12502
rthumb 3.88522 -16.1796
lclavicle 7.15625e-014 -5.725e-014
lhumerus -39.8435 -34.1342 101.421
lradius 65.187
lwrist 11.9991
lhand -19.0282 16.5962
lfingers 7.12502
lthumb 7.27797 46.451
rfemur -48.9601 -1.23254 18.0454
rtibia 25.8249
rfoot -4.35494 -4.53593
rtoes 1.78264
lfemur -30.7161 -2.41609 -13.6273
ltibia 31.9964
lfoot -21.6883 -11.4207
ltoes 0.426568
201
root 0.135224 17.7392 -5.50265 22.3704 17.1438 -1.63257
lowerback 15.4683 4.15613 -1.39308
upperback 9.46614 5.39307 5.51049
thorax 0.755984 2.53231 5.79444
lowerneck -14.4318 -5.75916 -1.18423
upperneck 32.2566 -6.44713 -3.67069
head 13.1076 -3.29966 -2.1677
rclavicle 5.24792e-014 1.59028e-015
rhumerus -0.248126 6.43336 -75.3652
rradius 34.7921
rwrist -12.0387
rhand -22.2787 13.6729
rfingers 7.12502
rthumb 4.13964 -16.2666
lclavicle 5.24792e-014 1.59028e-015
lhumerus -39.6569 -34.6498 101.359
lradius 65.1995
lwrist 10.9072
lhand -19.5794 15.6745
lfingers 7.12502
lthumb 6.74589 45.5471
rfemur -49.372 -1.18904 18.2145
rtibia 26.2941
rfoot -3.80994 -5.56274
rtoes -0.009324
lfemur -30.7487 -2.53041 -13.2047
ltibia 31.8016
lfoot -21.8066 -11.5435
ltoes -0.623385
202
root 0.0894929 17.7322 -5.44342 22.5833 17.4412 -1.66178
lowerback 16.142 4.3441 -0.89083
upperback 9.65741 5.70054 5.55854
thorax 0.615145 2.70182 5.47621
lowerneck -14.375 -6.07043 -1.11868
upperneck 31.8062 -6.95029 -3.5475
head 12.898 -3.49822 -2.18407
rclavicle -3.81667e-014 2.38542e-014
rhumerus 0.216162 6.19291 -74.9926
rradius 34.9823
rwrist -12.57
rhand -22.2089 13.7614
rfingers 7.12502
rthumb 4.207 -16.1768
lclavicle -3.81667e-014 2.38542e-014
lhumerus -39.4997 -35.6286 101.403
lradius 65.1499
lwrist 9.96997
lhand -20.3022 14.9979
lfingers 7.12502
lthumb 6.04808 44.8916
rfemur -49.8399 -1.29144 18.5177
rtibia 26.9003
rfoot -3.74386 -6.33468
rtoes -2.49288
lfemur -30.8574 -2.75456 -12.8349
ltibia 31.774
lfoot -22.1959 -11.1159
ltoes -3.18484
203
root 0.0503896 17.7242 -5.38154 22.8388 17.5501 -1.64043
lowerback 16.7702 4.52626 -0.540296
upperback 9.9012 5.98301 5.63911
thorax 0.547382 2.85029 5.28607
lowerneck -14.2526 -6.3766 -1.23305
upperneck 31.1631 -7.38314 -3.46454
head 12.6075 -3.69807 -2.16475
rclavicle -1.43125e-014 3.33958e-014
rhumerus 0.775321 6.35688 -74.4384
rradius 35.2451
rwrist -13.1193
rhand -22.4429 13.8256
rfingers 7.12502
rthumb 3.98109 -16.117
lclavicle -1.43125e-014 3.33958e-014
lhumerus -39.3255 -36.4247 101.569
lradius 65.211
lwrist 9.21906
lhand -21.1764 14.5213
lfingers 7.12502
lthumb 5.20399 44.4374
rfemur -50.3565 -1.61304 18.9037
rtibia 27.5508
rfoot -4.06164 -6.54867
rtoes -3.83566
lfemur -31.0348 -2.92023 -12.6483
ltibia 31.8059
lfoot -23.1092 -9.89644
ltoes -9.27844
204
root -0.0322555 17.6924 -5.36624 24.5715 19.0493 -1.10827
lowerback 16.5672 4.20408 -0.447504
upperback 9.64527 5.59755 5.89869
thorax 0.399275 2.66377 5.57897
lowerneck -14.352 -6.54816 -1.3552
upperneck 30.6373 -7.60333 -3.43556
head 12.4178 -3.81204 -2.14867
rclavicle -2.22639e-014 -4.45278e-014
rhumerus 1.49214 6.81667 -73.8858
rradius 35.3667
rwrist -13.2507
rhand -23.1658 13.8138
rfingers 7.12502
rthumb 3.28302 -16.1406
lclavicle -2.22639e-014 -4.45278e-014
lhumerus -39.0554 -36.9047 101.703
lradius 65.297
lwrist 8.50396
lhand -21.849 14.1741
lfingers 7.12502
lthumb 4.55458 44.1051
rfemur -52.396 -2.35447 18.7405
rtibia 28.2861
rfoot -4.1024 -7.85714
rtoes -4.43135
lfemur -33.357 -3.22099 -12.4537
ltibia 31.9587
lfoot -23.3564 -10.2007
ltoes -13.0144
